<?xml version="1.0" standalone="no"?>
<!DOCTYPE svg PUBLIC "-//W3C//DTD SVG 20010904//EN"
 "http://www.w3.org/TR/2001/REC-SVG-20010904/DTD/svg10.dtd">
<svg version="1.0" xmlns="http://www.w3.org/2000/svg"
 width="738.000000pt" height="615.000000pt" viewBox="0 0 738.000000 615.000000"
 preserveAspectRatio="xMidYMid meet">
<metadata>
Created by potrace 1.10, written by Peter Selinger 2001-2011
</metadata>
<g transform="translate(0.000000,615.000000) scale(0.100000,-0.100000)"
fill="#000000" stroke="none">
<path d="M3653 4668 c-4 -7 -8 -42 -8 -78 l0 -65 -90 -7 c-208 -15 -230 -30
-245 -168 -6 -52 -15 -122 -20 -155 -4 -33 -9 -80 -9 -105 -1 -43 1 -47 37
-63 96 -45 623 -46 717 -1 35 17 40 24 43 58 2 22 -3 85 -12 140 -8 56 -17
126 -20 156 -7 66 -31 102 -77 113 -19 4 -48 12 -65 18 -17 5 -65 9 -107 9
-47 0 -79 4 -83 12 -4 6 -6 38 -5 71 2 41 -2 63 -11 68 -19 12 -36 11 -45 -3z
m174 -209 c70 -6 133 -15 139 -20 11 -9 28 -96 39 -204 4 -33 12 -66 18 -73 7
-9 7 -16 -1 -24 -8 -8 -36 -6 -104 7 -75 14 -129 16 -273 12 -99 -3 -207 -10
-239 -16 -65 -13 -84 -5 -67 26 5 11 15 69 21 129 6 60 17 119 25 130 12 19
29 23 117 31 147 14 181 14 325 2z m179 -370 c3 -6 -1 -18 -10 -27 -14 -14
-53 -16 -315 -16 -277 0 -301 1 -320 18 -11 10 -18 23 -15 28 8 13 652 10 660
-3z"/>
<path d="M4823 3923 c-7 -2 -13 -14 -13 -26 0 -38 -13 -44 -102 -50 -109 -9
-169 -37 -236 -113 -65 -73 -77 -137 -34 -186 20 -23 79 -42 124 -39 73 4 98
-36 63 -102 -8 -15 -17 -43 -21 -63 -5 -28 -18 -43 -67 -77 -33 -23 -63 -41
-66 -39 -3 1 -6 26 -6 55 0 42 -6 61 -34 102 -44 66 -92 101 -233 172 -27 14
-85 17 -112 7 -45 -17 15 -144 131 -276 45 -51 77 -104 145 -236 75 -146 75
-152 0 -152 -57 0 -109 -17 -130 -43 -6 -7 -16 -32 -21 -55 -6 -23 -16 -61
-22 -84 -6 -24 -12 -86 -12 -139 -2 -118 16 -154 103 -205 70 -42 145 -57 244
-51 146 10 227 48 282 132 15 24 19 48 19 120 0 87 -6 117 -44 234 -23 72 -51
89 -148 90 -39 1 -75 6 -78 12 -4 6 -4 30 0 55 6 43 7 44 44 44 30 0 43 7 71
38 45 48 59 73 76 139 18 68 18 65 -6 91 -14 14 -33 22 -55 22 -30 0 -35 3
-35 24 0 14 4 27 9 31 5 3 13 19 16 37 12 51 64 128 131 193 72 70 76 73 129
104 22 13 68 45 102 70 48 35 63 52 63 72 0 61 -72 99 -185 98 -44 0 -86 -3
-92 -6z m177 -58 c55 -19 50 -39 -22 -84 -35 -22 -67 -43 -73 -48 -5 -4 -30
-21 -55 -37 -52 -34 -147 -130 -155 -157 -8 -24 -16 -24 -45 3 -18 17 -34 21
-79 20 -68 -2 -101 17 -101 56 0 72 127 172 219 172 99 0 172 13 182 32 7 14
7 23 -1 33 -30 36 39 42 130 10z m-794 -371 c82 -43 118 -67 150 -99 56 -54
92 -143 65 -159 -5 -3 -28 10 -51 29 -29 24 -49 34 -61 30 -19 -7 -54 22 -92
75 -9 14 -33 47 -52 74 -57 80 -44 95 41 50z m483 -243 c37 -24 -51 -212 -92
-198 -19 6 -20 61 -3 102 9 21 16 47 16 59 0 40 43 60 79 37z m-322 -40 c7 -8
29 -15 50 -16 28 -2 39 -7 41 -21 8 -55 13 -63 42 -69 34 -7 34 -7 17 -115
-16 -100 -36 -105 -66 -16 -24 71 -71 164 -107 212 -30 38 -34 74 -6 53 9 -7
22 -20 29 -28z m203 10 c0 -5 -7 -25 -15 -45 -11 -26 -21 -36 -33 -34 -26 5
-26 37 -1 64 22 24 49 32 49 15z m117 -380 c37 -14 54 -59 74 -187 27 -178
-15 -239 -186 -269 -78 -13 -93 -13 -163 2 -85 18 -139 47 -166 88 -14 22 -17
42 -13 118 5 94 23 186 44 222 7 13 31 24 65 32 65 15 301 10 345 -6z"/>
<path d="M2413 3799 c-10 -4 -48 -38 -85 -77 -72 -74 -81 -98 -57 -159 11 -26
28 -88 50 -178 5 -22 14 -49 19 -60 18 -37 33 -109 33 -155 0 -55 -29 -309
-37 -330 -3 -8 -10 -64 -15 -125 -6 -60 -13 -119 -16 -131 -10 -34 19 -54 78
-54 29 0 57 4 63 8 13 8 34 119 34 175 0 59 17 67 136 67 58 0 148 5 200 11
53 6 99 7 103 4 3 -4 9 -48 12 -98 20 -274 28 -331 49 -349 28 -23 86 -33 119
-22 25 10 26 12 23 89 -2 44 -12 146 -23 228 -11 81 -17 152 -14 157 7 12 112
14 118 3 3 -5 1 -50 -5 -102 -7 -67 -7 -96 1 -104 17 -17 118 -14 135 3 9 9
18 51 23 110 l8 95 100 8 c55 5 156 9 225 10 l125 2 7 -125 c10 -167 16 -205
36 -230 19 -24 84 -37 128 -26 26 7 27 7 21 79 -9 101 -15 162 -32 312 -24
217 -35 324 -45 460 -17 222 -45 270 -141 245 -55 -14 -307 -97 -334 -110 -66
-30 -119 -50 -123 -46 -2 3 -8 22 -13 43 -21 100 -32 139 -40 147 -5 6 -9 18
-9 27 0 35 -41 143 -62 160 -19 17 -41 19 -235 19 -118 0 -244 4 -281 10 -88
12 -256 18 -279 9z m426 -70 c172 -5 322 -14 332 -19 10 -6 21 -27 25 -48 4
-20 10 -41 14 -47 4 -5 11 -29 15 -52 4 -24 11 -45 16 -49 5 -3 9 -17 9 -32 0
-15 7 -40 15 -55 8 -15 17 -45 21 -65 4 -20 10 -41 14 -47 4 -5 11 -26 15 -45
3 -19 13 -50 22 -68 24 -55 18 -58 -118 -60 -68 -2 -133 -4 -144 -5 -23 -2
-29 25 -43 181 -8 82 -12 96 -37 122 -32 34 -67 38 -111 15 -16 -8 -39 -15
-51 -15 -12 0 -24 -4 -27 -9 -3 -5 -21 -12 -40 -15 -20 -4 -48 -13 -63 -21
-15 -8 -34 -15 -41 -15 -12 0 -20 -3 -79 -33 -31 -15 -33 -15 -42 2 -10 17
-33 104 -51 190 -6 24 -14 49 -19 55 -5 6 -12 30 -16 53 -4 24 -11 45 -16 49
-5 3 -9 17 -9 31 0 25 1 26 48 19 26 -3 188 -11 361 -17z m-441 -66 c6 -21 18
-61 26 -89 8 -27 18 -69 22 -92 4 -23 11 -45 15 -48 5 -3 9 -13 9 -22 0 -9 7
-30 15 -46 15 -29 15 -30 -12 -52 -40 -32 -72 -37 -78 -10 -2 11 -6 32 -9 46
-2 14 -12 52 -21 85 -9 33 -22 81 -28 107 -7 25 -15 50 -20 54 -14 14 -7 35
25 69 17 19 34 35 38 35 4 0 12 -17 18 -37z m1440 -172 c17 -11 31 -114 72
-546 6 -60 15 -141 20 -180 5 -38 13 -116 16 -172 7 -100 6 -103 -14 -103 -35
0 -34 -5 -61 245 -5 44 -16 150 -25 235 -9 85 -20 189 -26 230 -5 41 -12 113
-16 160 -4 47 -11 91 -16 97 -24 29 16 56 50 34z m-98 -52 c12 -22 33 -259 24
-268 -3 -3 -38 -7 -77 -8 -40 -1 -115 -6 -167 -11 -52 -5 -99 -7 -104 -4 -10
5 1 163 14 196 5 14 24 28 52 38 23 8 59 20 78 27 19 7 51 17 70 23 19 5 39
14 45 19 17 16 54 10 65 -12z m-771 -51 c4 -13 11 -64 14 -114 4 -50 11 -122
16 -160 12 -83 27 -217 46 -424 8 -85 18 -184 23 -220 10 -71 6 -100 -13 -100
-33 0 -45 37 -60 186 -8 82 -19 176 -25 209 -5 33 -10 87 -10 120 0 33 -7 96
-15 140 -8 44 -14 109 -15 145 0 52 -13 146 -30 215 -5 20 1 25 30 25 22 0 33
-6 39 -22z m-121 -16 c10 -7 26 -107 35 -222 l2 -25 -137 -3 -136 -3 -17 33
c-9 18 -20 49 -24 68 -5 19 -10 41 -12 49 -5 18 26 34 121 63 41 12 86 28 100
35 29 15 50 16 68 5z m527 -60 c0 -46 -19 -44 -23 2 -3 28 0 37 10 34 7 -3 13
-19 13 -36z m-872 -54 c2 -7 0 -24 -5 -38 -12 -31 -36 -208 -48 -357 -5 -62
-14 -129 -19 -150 -6 -21 -11 -52 -11 -70 0 -47 -9 -63 -36 -63 -16 0 -24 6
-24 18 0 19 35 303 50 402 5 36 13 103 16 149 5 62 12 89 25 102 22 22 45 25
52 7z m60 -143 c6 -16 15 -34 21 -38 6 -4 78 -7 161 -5 l150 3 2 -65 c2 -36 8
-85 13 -109 6 -24 8 -46 5 -49 -3 -3 -83 -7 -178 -9 -94 -2 -187 -8 -205 -14
-18 -6 -36 -8 -39 -5 -4 3 -1 30 6 59 7 28 15 101 18 160 5 89 9 107 21 105 9
-2 20 -16 25 -33z m1220 -12 c3 -5 8 -56 12 -114 l7 -106 -209 -6 c-114 -4
-275 -11 -357 -17 -83 -5 -151 -8 -153 -6 -6 5 -32 209 -28 216 5 9 169 19
435 29 107 4 216 8 242 9 26 1 49 -1 51 -5z m-471 -351 c-5 -71 -15 -103 -35
-116 -32 -21 -39 4 -27 93 12 80 13 82 39 79 25 -3 26 -5 23 -56z"/>
<path d="M2057 2183 c-4 -3 -7 -109 -7 -235 0 -202 2 -229 16 -235 9 -3 23 -2
32 3 12 8 15 45 14 231 0 122 -3 227 -7 232 -7 12 -38 15 -48 4z"/>
<path d="M2262 2182 c-10 -7 -13 -62 -14 -232 -2 -193 0 -225 14 -233 8 -6 23
-7 33 -3 16 6 17 21 13 182 -3 96 -2 177 2 179 4 2 27 -24 53 -58 65 -88 91
-121 177 -224 10 -12 23 -31 29 -42 15 -27 50 -46 63 -33 5 5 10 106 10 233 1
196 -1 224 -15 233 -12 8 -20 7 -30 -4 -11 -12 -12 -48 -7 -180 3 -91 4 -169
2 -173 -5 -11 -29 15 -77 83 -35 50 -43 61 -70 93 -16 19 -89 110 -100 125
-21 29 -54 62 -62 62 -4 0 -14 -4 -21 -8z"/>
<path d="M2748 2179 c-5 -4 -8 -17 -6 -30 3 -23 7 -24 78 -25 l75 0 2 -195 c1
-106 2 -200 2 -206 1 -16 47 -17 57 -1 4 6 8 99 8 207 l1 195 75 0 c74 1 75 1
78 29 2 15 0 27 -5 28 -48 4 -357 2 -365 -2z"/>
<path d="M3230 2180 c-9 -6 -16 -447 -8 -456 3 -2 78 -5 167 -7 167 -3 191 2
178 38 -5 12 -34 15 -149 17 l-143 3 0 75 0 75 122 -4 c111 -3 122 -2 131 16
21 38 2 45 -119 43 -63 -1 -120 -2 -126 -1 -9 1 -13 22 -13 71 0 60 3 70 18
71 9 0 74 0 145 -1 l127 -1 0 30 c0 17 -6 32 -12 32 -39 5 -311 3 -318 -1z"/>
<path d="M3680 2180 c-5 -3 -10 -106 -11 -229 -2 -193 0 -226 13 -234 8 -6 23
-7 32 -4 15 6 17 19 14 94 l-3 88 59 3 c67 4 65 6 146 -112 57 -82 110 -112
110 -62 0 23 -11 38 -87 125 -18 20 -33 41 -33 47 0 6 18 19 40 29 45 20 80
71 80 115 0 40 -35 95 -75 119 -27 16 -56 20 -155 23 -67 1 -126 1 -130 -2z
m274 -91 c29 -34 31 -47 14 -83 -19 -42 -48 -55 -134 -56 -44 -1 -87 -1 -96
-1 -16 1 -18 12 -18 86 l0 85 104 0 c104 0 104 0 130 -31z"/>
<path d="M4159 2188 c-5 -14 -5 -459 1 -468 4 -6 18 -10 31 -8 l24 3 3 229 c3
240 2 245 -40 246 -10 0 -18 -1 -19 -2z"/>
<path d="M4478 2172 c-93 -44 -142 -122 -142 -227 0 -64 3 -74 36 -125 43 -64
83 -93 153 -110 42 -10 58 -10 102 3 134 40 205 163 173 297 -14 58 -79 138
-134 164 -45 21 -141 20 -188 -2z m159 -53 c84 -31 133 -147 100 -235 -30 -77
-84 -114 -167 -114 -70 0 -99 15 -141 74 -24 32 -29 49 -29 97 0 70 10 99 49
139 47 50 118 65 188 39z"/>
<path d="M4937 2178 c-9 -4 -12 -70 -12 -235 l0 -228 25 0 c24 0 25 2 30 90
l5 90 60 3 c59 2 60 2 85 -35 14 -21 29 -43 35 -49 5 -6 17 -22 25 -35 25 -39
71 -79 91 -79 14 0 19 7 19 29 0 16 -4 31 -9 33 -14 5 -111 122 -111 134 0 6
18 19 41 29 38 18 79 72 79 107 0 35 -34 95 -67 118 -33 22 -49 26 -160 30
-69 3 -130 2 -136 -2z m267 -79 c20 -16 26 -29 26 -59 0 -32 -6 -43 -33 -64
-31 -24 -43 -26 -125 -26 l-92 0 0 85 0 85 99 0 c84 0 102 -3 125 -21z"/>
<path d="M2349 1558 c-22 -17 -32 -83 -15 -97 9 -7 23 -3 50 15 32 22 37 30
34 57 -2 26 -8 33 -28 35 -14 2 -32 -3 -41 -10z"/>
<path d="M3233 1554 c-3 -8 -1 -25 5 -37 6 -12 12 -31 14 -42 5 -32 36 -31 43
2 4 15 11 36 16 47 13 22 4 31 -39 40 -24 4 -34 2 -39 -10z"/>
<path d="M3615 1553 c-8 -8 -15 -32 -15 -54 l0 -40 43 3 42 3 0 44 c0 40 -3
45 -28 52 -19 5 -32 3 -42 -8z"/>
<path d="M3813 1560 c-18 -8 -23 -17 -23 -48 0 -50 20 -69 58 -55 16 5 25 15
23 24 -2 8 -3 25 -2 38 1 23 -15 52 -28 50 -3 0 -16 -4 -28 -9z"/>
<path d="M4258 1563 c-21 -5 -33 -43 -24 -78 8 -30 26 -40 60 -31 22 5 24 10
21 51 -5 65 -11 70 -57 58z"/>
<path d="M4745 1546 c-30 -30 -31 -36 -4 -70 40 -51 96 -25 86 40 -7 42 -5 39
-34 48 -17 5 -29 1 -48 -18z"/>
<path d="M2504 1535 c-5 -19 -1 -35 13 -53 40 -54 97 -31 91 37 -2 28 -7 36
-23 36 -12 0 -21 -9 -26 -25 l-6 -25 -4 25 c-6 35 -36 38 -45 5z"/>
<path d="M2717 1553 c-4 -3 -7 -26 -7 -50 l0 -43 44 0 44 0 -1 38 c0 20 -5 43
-10 50 -10 13 -59 17 -70 5z"/>
<path d="M2897 1553 c-4 -3 -7 -24 -7 -45 0 -42 20 -59 44 -39 10 9 16 8 26
-4 19 -23 40 0 40 47 0 42 -20 59 -44 39 -10 -8 -16 -9 -21 -1 -7 11 -28 13
-38 3z"/>
<path d="M3087 1553 c-4 -3 -7 -25 -7 -49 0 -32 4 -43 19 -47 27 -7 43 7 47
39 5 44 -5 64 -30 64 -12 0 -26 -3 -29 -7z"/>
<path d="M3407 1553 c-26 -26 16 -103 56 -103 41 0 64 101 25 108 -14 3 -18
-3 -18 -28 0 -21 -4 -30 -12 -28 -7 3 -13 11 -14 19 -2 34 -5 39 -17 39 -8 0
-17 -3 -20 -7z"/>
<path d="M4034 1535 c-10 -39 3 -74 30 -81 50 -12 91 39 66 85 -8 16 -20 21
-50 21 -34 0 -41 -4 -46 -25z"/>
<path d="M4417 1553 c-10 -18 2 -88 16 -97 22 -14 67 8 67 33 0 44 -18 71 -49
71 -16 0 -32 -3 -34 -7z"/>
<path d="M4592 1548 c-20 -20 -15 -76 9 -88 38 -21 64 30 43 84 -7 19 -35 21
-52 4z"/>
<path d="M4929 1544 c-6 -7 -9 -28 -7 -46 3 -32 4 -33 56 -36 l52 -3 0 49 0
49 -45 0 c-25 0 -50 -6 -56 -13z"/>
</g>
</svg>
